<?xml version="1.0" encoding="UTF-8"?>
<svg version="1.1" xmlns="http://www.w3.org/2000/svg" width="640" height="457">
<path d="M0 0 C211.2 0 422.4 0 640 0 C640 150.81 640 301.62 640 457 C428.8 457 217.6 457 0 457 C0 306.19 0 155.38 0 0 Z " fill="#B3E1ED" transform="translate(0,0)"/>
<path d="M0 0 C7.75686941 8.2608468 8.55922058 18.91109562 8.5 29.75 C8.49572998 30.96083252 8.49145996 32.17166504 8.48706055 33.41918945 C8.23046185 47.5448118 5.70671254 61.17252175 3 75 C2.62169772 77.0491109 2.24528615 79.0985721 1.87109375 81.1484375 C-0.59203193 94.32132491 -3.74125799 107.3033316 -6.96160889 120.30603027 C-9.83606769 131.93005104 -12.48466111 143.57917767 -14.875 155.3125 C-15.08367706 156.33487259 -15.08367706 156.33487259 -15.29656982 157.37789917 C-18.07268037 171.03067377 -20.81002619 184.69082103 -22.6875 198.5 C-22.88182617 199.89412109 -22.88182617 199.89412109 -23.08007812 201.31640625 C-23.39008034 203.54382956 -23.69675441 205.77164872 -24 208 C-23.0620459 207.97905273 -22.1240918 207.95810547 -21.15771484 207.93652344 C-17.65761375 207.86810627 -14.15822934 207.81808414 -10.65771484 207.78027344 C-9.14653264 207.76023209 -7.63542728 207.73299095 -6.12451172 207.69824219 C-3.94479357 207.64938891 -1.76610569 207.62695776 0.4140625 207.609375 C1.7232666 207.58842773 3.0324707 207.56748047 4.38134766 207.54589844 C9.14775037 208.1440302 12.37821321 210.01386658 15.42578125 213.74609375 C20.52484536 223.47250238 20.29443566 234.58922393 17.25 245 C14.62744145 252.53871361 10.95624147 258.79119369 4 263 C0.43449855 263.82888991 -3.00921195 263.7713733 -6.65649414 263.69702148 C-7.70838425 263.69950394 -8.76027435 263.70198639 -9.84403992 263.70454407 C-13.325144 263.70546222 -16.80433255 263.66356244 -20.28515625 263.62109375 C-22.74001829 263.61241861 -25.19489048 263.60628475 -27.64976501 263.60255432 C-34.137453 263.5853096 -40.62435194 263.5312922 -47.11175537 263.47027588 C-53.56725784 263.41672021 -60.02283894 263.40103768 -66.47851562 263.38085938 C-78.76296657 263.33549332 -91.04579755 263.22352579 -103.32940674 263.07537842 C-108.59162656 263.01255136 -113.85363218 262.97326776 -119.11612415 262.9427824 C-122.69768626 262.91696436 -126.27871428 262.87046935 -129.85995293 262.81648445 C-131.46779441 262.79591354 -133.07576394 262.78344048 -134.68373299 262.77984428 C-136.84805988 262.77339532 -139.00976517 262.73662898 -141.17358398 262.69165039 C-142.35903305 262.67872452 -143.54448212 262.66579865 -144.76585388 262.65248108 C-149.13933467 261.77014201 -150.82765013 260.10820727 -154 257 C-155.42578125 254.5703125 -155.42578125 254.5703125 -156.3125 252.125 C-156.61800781 251.32320312 -156.92351562 250.52140625 -157.23828125 249.6953125 C-165.86223773 219.1797742 -153.18486652 180.86565436 -147.25776672 150.57051086 C-136.88587152 97.64469494 -136.88587152 97.64469494 -132 44 C-132.59369385 44.15847412 -133.1873877 44.31694824 -133.79907227 44.48022461 C-143.36232572 46.73870122 -154.25137974 46.14795545 -164 46 C-168.56976515 38.85974195 -168.94759963 32.36232253 -168 24 C-166.61038592 18.8033367 -163.56867558 14.50244203 -159.2592926 11.27416992 C-148.86183467 5.41033088 -131.10053858 6.72532107 -119.44140625 5.6875 C-117.04643066 5.47130537 -114.65148798 5.25474586 -112.25657654 5.0378418 C-105.9706671 4.46950407 -99.68433099 3.90603116 -93.39788818 3.34362793 C-87.06512797 2.77625035 -80.73277457 2.2043715 -74.40039062 1.6328125 C-67.24381792 0.98718746 -60.08720433 0.34203691 -52.93031311 -0.30004883 C-51.8394638 -0.39793198 -50.74861448 -0.49581512 -49.62470913 -0.59666443 C-47.49325752 -0.78772632 -45.3617764 -0.97845926 -43.23026371 -1.1688385 C-38.05872051 -1.63154382 -32.88811287 -2.10220176 -27.71871948 -2.58837891 C-26.7156095 -2.68198196 -25.71249952 -2.77558502 -24.67899227 -2.87202454 C-22.79842073 -3.04791222 -20.91805002 -3.22596693 -19.0379343 -3.40666199 C-5.61301521 -4.65760836 -5.61301521 -4.65760836 0 0 Z " fill="#FCFCFC" transform="translate(475,125)"/>
<path d="M0 0 C5.00669309 1.55483236 9.61578486 4.05602337 14.27001953 6.43554688 C15.33285156 6.96148437 16.39568359 7.48742187 17.49072266 8.02929688 C20.43790169 9.51669266 23.33080069 11.06658987 26.20751953 12.68554688 C26.87267578 13.05123779 27.53783203 13.41692871 28.22314453 13.79370117 C30.78213022 15.49956255 32.06560796 17.2089633 32.93725586 20.13623047 C33.46847262 23.09069661 33.80715364 26.00917955 34.08251953 28.99804688 C34.19853516 30.02478516 34.31455078 31.05152344 34.43408203 32.109375 C34.71570212 34.63222165 34.96483597 37.15865753 35.20751953 39.68554688 C36.52751953 36.38554687 37.84751953 33.08554688 39.20751953 29.68554688 C40.19751953 29.68554688 41.18751953 29.68554688 42.20751953 29.68554688 C43.99734716 32.00724315 45.58037051 34.28134165 47.14501953 36.74804688 C47.57492188 37.40482422 48.00482422 38.06160156 48.44775391 38.73828125 C49.72552605 40.70632181 50.97039962 42.69174918 52.20751953 44.68554688 C52.80959229 45.62708618 52.80959229 45.62708618 53.42382812 46.58764648 C56.56612045 51.70401349 56.39885663 54.02669566 55.20751953 59.68554688 C55.86751953 58.03554687 56.52751953 56.38554687 57.20751953 54.68554688 C60.66541689 58.47807946 62.20751953 61.47558443 62.20751953 66.68554688 C63.19751953 66.68554688 64.18751953 66.68554688 65.20751953 66.68554688 C72.13174116 81.14415767 78.7812248 95.66195811 84.70751953 110.56054688 C85.18672852 111.76340332 85.6659375 112.96625977 86.15966797 114.20556641 C87.53173058 117.69060544 88.87492201 121.18524433 90.20751953 124.68554688 C90.4469931 125.30116486 90.68646667 125.91678284 90.93319702 126.55105591 C91.6552989 128.41282567 92.35930739 130.28158058 93.06298828 132.15039062 C93.68790161 133.79189087 93.68790161 133.79189087 94.32543945 135.46655273 C95.7551424 140.68399899 95.06312052 145.42487146 94.20751953 150.68554688 C94.20751953 151.67554688 94.20751953 152.66554687 94.20751953 153.68554688 C95.19751953 149.72554688 95.19751953 149.72554688 96.20751953 145.68554688 C99.28223566 148.76026301 100.27763357 152.48738528 101.20751953 156.68554688 C101.17097761 159.19780366 100.78439839 161.22070085 100.20751953 163.68554688 C100.86751953 163.02554688 101.52751953 162.36554688 102.20751953 161.68554688 C103.83743218 165.2509808 104.20751953 167.80878143 104.20751953 171.68554688 C104.86751953 172.34554687 105.52751953 173.00554687 106.20751953 173.68554688 C106.57828088 178.50544445 105.95962291 182.19578196 104.20751953 186.68554688 C106.51751953 185.03554688 108.82751953 183.38554687 111.20751953 181.68554688 C110.7217341 184.80845323 110.20891834 187.68135046 109.20751953 190.68554688 C110.52751953 191.01554688 111.84751953 191.34554687 113.20751953 191.68554688 C111.22751953 192.67554688 111.22751953 192.67554688 109.20751953 193.68554688 C109.20751953 194.67554688 109.20751953 195.66554688 109.20751953 196.68554688 C110.52751953 197.01554688 111.84751953 197.34554687 113.20751953 197.68554688 C112.20751953 198.68554688 112.20751953 198.68554688 108.77001953 199.12304688 C104.34297182 199.82205441 103.7688153 201.08107451 100.77001953 204.31054688 C98.20751953 206.68554688 98.20751953 206.68554688 95.20751953 206.68554688 C95.53751953 206.02554688 95.86751953 205.36554688 96.20751953 204.68554688 C95.54751953 204.35554687 94.88751953 204.02554688 94.20751953 203.68554688 C95.19751953 202.69554687 96.18751953 201.70554687 97.20751953 200.68554688 C93.24751953 200.68554688 89.28751953 200.68554688 85.20751953 200.68554688 C88.20751953 197.68554688 88.20751953 197.68554688 90.20751953 196.68554688 C89.14210937 196.61207031 89.14210937 196.61207031 88.05517578 196.53710938 C87.13607422 196.46234375 86.21697266 196.38757813 85.27001953 196.31054688 C84.35349609 196.2409375 83.43697266 196.17132813 82.49267578 196.09960938 C81.73857422 195.96296875 80.98447266 195.82632813 80.20751953 195.68554688 C79.87751953 195.02554688 79.54751953 194.36554688 79.20751953 193.68554688 C81.18751953 193.02554688 83.16751953 192.36554688 85.20751953 191.68554688 C84.19689453 191.37617188 83.18626953 191.06679688 82.14501953 190.74804688 C76.98673018 188.60051416 74.2889492 184.1531516 71.20751953 179.68554688 C72.19751953 179.35554687 73.18751953 179.02554688 74.20751953 178.68554688 C73.46630859 178.44449219 72.72509766 178.2034375 71.96142578 177.95507812 C68.83250136 176.51266616 67.35791745 174.99068955 65.14501953 172.37304688 C64.46310547 171.57382812 63.78119141 170.77460938 63.07861328 169.95117188 C61.09493523 167.5492235 59.11466988 165.14894941 57.20751953 162.68554688 C57.53751953 162.02554688 57.86751953 161.36554688 58.20751953 160.68554688 C60.18751953 161.67554688 60.18751953 161.67554688 62.20751953 162.68554688 C61.60166016 162.27046875 60.99580078 161.85539063 60.37158203 161.42773438 C52.52550097 155.65784707 47.49180929 148.7046303 42.20751953 140.68554688 C41.59489258 139.76918457 40.98226562 138.85282227 40.35107422 137.90869141 C32.16960751 125.66803434 24.24437501 113.2949225 16.64501953 100.68554688 C15.67109253 99.07425903 15.67109253 99.07425903 14.67749023 97.43041992 C14.08798584 96.44211182 13.49848145 95.45380371 12.89111328 94.43554688 C12.370896 93.56414062 11.85067871 92.69273437 11.31469727 91.79492188 C10.20751953 89.68554688 10.20751953 89.68554688 10.20751953 87.68554688 C12.18751953 87.19054687 12.18751953 87.19054687 14.20751953 86.68554688 C13.05251953 86.29367188 11.89751953 85.90179688 10.70751953 85.49804688 C4.39669419 82.42151952 1.2684332 75.72596693 -1.79248047 69.68554688 C-1.79248047 69.02554688 -1.79248047 68.36554688 -1.79248047 67.68554688 C2.16751953 68.67554688 6.12751953 69.66554688 10.20751953 70.68554688 C9.15951172 70.16605469 8.11150391 69.6465625 7.03173828 69.11132812 C5.65246609 68.40761782 4.27357984 67.70315072 2.89501953 66.99804688 C2.20472656 66.65837891 1.51443359 66.31871094 0.80322266 65.96875 C-4.5078538 63.22341096 -6.70804049 60.73804459 -8.74169922 55.01367188 C-12.35772575 39.93732845 -14.89914335 14.71220714 -6.62451172 0.70898438 C-4.28877263 -0.59584215 -2.59336637 -0.50409538 0 0 Z " fill="#5989B3" transform="translate(115.79248046875,97.314453125)"/>
<path d="M0 0 C3.00469351 2.59496258 3.36858796 3.9214699 5 8 C10.94 8 16.88 8 23 8 C23 12.95 23 17.9 23 23 C34.88 23 46.76 23 59 23 C59 43.79 59 64.58 59 86 C64.08817139 85.99419922 69.17634277 85.98839844 74.41870117 85.98242188 C124.8932656 85.93815699 175.36379443 86.11764253 225.83722198 86.44538212 C235.50023538 86.50801479 245.16326787 86.56745154 254.82630217 86.62675762 C274.55088946 86.74788026 294.27545244 86.87257794 314 87 C314 87.66 314 88.32 314 89 C179.69 89 45.38 89 -93 89 C-93 88.34 -93 87.68 -93 87 C-76.83 87 -60.66 87 -44 87 C-44 65.88 -44 44.76 -44 23 C-32.12 23 -20.24 23 -8 23 C-8 18.05 -8 13.1 -8 8 C-4.37 8 -0.74 8 3 8 C2.505 7.05125 2.01 6.1025 1.5 5.125 C0 2 0 2 0 0 Z " fill="#20282F" transform="translate(221,301)"/>
<path d="M0 0 C1.134375 0.00902344 2.26875 0.01804687 3.4375 0.02734375 C4.283125 0.03894531 5.12875 0.05054687 6 0.0625 C5.59007812 0.65417969 5.18015625 1.24585937 4.7578125 1.85546875 C4.21898437 2.64566406 3.68015625 3.43585938 3.125 4.25 C2.59132813 5.02730469 2.05765625 5.80460937 1.5078125 6.60546875 C-2.39296422 12.96191579 -2.77897822 18.72712179 -2 26.0625 C-1.02744708 29.28752218 0.15901293 32.23383009 2 35.0625 C2.66 35.3925 3.32 35.7225 4 36.0625 C4 36.7225 4 37.3825 4 38.0625 C3.18110291 38.1265654 2.36220581 38.1906308 1.51849365 38.25663757 C-8.20419103 39.01761725 -17.92668404 39.78102073 -27.64908981 40.54555511 C-30.24033967 40.74924065 -32.83160937 40.95267236 -35.42288208 41.15606689 C-53.60219736 42.58368993 -71.77971007 44.02623265 -89.94921875 45.57421875 C-91.33795977 45.6921579 -92.72670282 45.81007305 -94.115448 45.92796326 C-100.53567086 46.47370935 -106.9552222 47.02638721 -113.37402344 47.58862305 C-115.67511509 47.78582099 -117.97622104 47.98285227 -120.27734375 48.1796875 C-121.28149826 48.27001755 -122.28565277 48.3603476 -123.32023621 48.45341492 C-130.55783109 49.0651954 -137.73869147 49.15518069 -145 49.0625 C-149.56976515 41.92224195 -149.94759963 35.42482253 -149 27.0625 C-147.6103559 21.86572442 -144.56851554 17.56301329 -140.25737 14.33653259 C-129.74091396 8.40117074 -111.73444179 9.76013563 -99.94921875 8.71484375 C-97.52070095 8.49629222 -95.09221945 8.27733702 -92.66377258 8.05799866 C-86.3034428 7.4844311 -79.94270659 6.91551047 -73.58184814 6.34783936 C-63.38508589 5.43707456 -53.18894866 4.51934472 -42.99283791 3.60132027 C-39.44341125 3.28243705 -35.89380359 2.96563509 -32.34416199 2.64915466 C-30.16262407 2.45356755 -27.98109004 2.25793693 -25.79956055 2.06225586 C-24.33046738 1.93210083 -24.33046738 1.93210083 -22.83169556 1.79931641 C-18.72832226 1.42989281 -14.63780002 1.03453983 -10.55158997 0.50611877 C-6.99226941 0.06153439 -3.58427874 -0.03733624 0 0 Z " fill="#FED383" transform="translate(456,121.9375)"/>
<path d="M0 0 C0.32572998 0.60658447 0.65145996 1.21316895 0.98706055 1.83813477 C6.96474625 12.95623396 12.98633777 24.04007164 19.25 35 C25.31115054 45.627975 31.04953761 56.41540065 36.76586914 67.23095703 C37.48708398 68.59540824 38.20835609 69.95982917 38.9296875 71.32421875 C39.28101242 71.98875061 39.63233734 72.65328247 39.99430847 73.33795166 C43.47654672 79.91582506 47.03633613 86.45016635 50.61352539 92.97680664 C54.44289697 99.96647257 58.22722243 106.97963847 62 114 C66.28557764 121.97327633 70.59240093 129.93400738 74.9375 137.875 C80.21520361 147.52629427 85.43484525 157.20843065 90.60913086 166.91552734 C93.37289912 172.09980133 96.14220526 177.27833033 98.98828125 182.41796875 C99.41987549 183.20582764 99.85146973 183.99368652 100.29614258 184.80541992 C101.07133223 186.21855717 101.85565051 187.62674446 102.65112305 189.02856445 C105.03929113 193.4156704 105.03929113 193.4156704 104.84765625 196.265625 C103.59784671 198.82283899 101.84923231 200.85250441 100 203 C99.34 202.67 98.68 202.34 98 202 C98.33 201.34 98.66 200.68 99 200 C98.34 199.67 97.68 199.34 97 199 C97.99 198.01 98.98 197.02 100 196 C96.04 196 92.08 196 88 196 C91 193 91 193 93 192 C91.93458984 191.92652344 91.93458984 191.92652344 90.84765625 191.8515625 C89.92855469 191.77679688 89.00945312 191.70203125 88.0625 191.625 C87.14597656 191.55539062 86.22945313 191.48578125 85.28515625 191.4140625 C84.53105469 191.27742187 83.77695313 191.14078125 83 191 C82.67 190.34 82.34 189.68 82 189 C83.98 188.34 85.96 187.68 88 187 C86.989375 186.690625 85.97875 186.38125 84.9375 186.0625 C79.77921065 183.91496729 77.08142967 179.46760472 74 175 C74.99 174.67 75.98 174.34 77 174 C76.25878906 173.75894531 75.51757812 173.51789063 74.75390625 173.26953125 C71.62498183 171.82711928 70.15039792 170.30514267 67.9375 167.6875 C67.25558594 166.88828125 66.57367188 166.0890625 65.87109375 165.265625 C63.8874157 162.86367663 61.90715035 160.46340254 60 158 C60.33 157.34 60.66 156.68 61 156 C62.98 156.99 62.98 156.99 65 158 C64.39414063 157.58492187 63.78828125 157.16984375 63.1640625 156.7421875 C55.31798144 150.9723002 50.28428976 144.01908342 45 136 C44.38737305 135.0836377 43.77474609 134.16727539 43.14355469 133.22314453 C34.96208798 120.98248747 27.03685548 108.60937562 19.4375 96 C18.463573 94.38871216 18.463573 94.38871216 17.4699707 92.74487305 C16.88046631 91.75656494 16.29096191 90.76825684 15.68359375 89.75 C15.16337646 88.87859375 14.64315918 88.0071875 14.10717773 87.109375 C13 85 13 85 13 83 C14.98 82.505 14.98 82.505 17 82 C15.845 81.608125 14.69 81.21625 13.5 80.8125 C7.18917466 77.73597264 4.06091366 71.04042005 1 65 C1 64.34 1 63.68 1 63 C6.94 64.485 6.94 64.485 13 66 C11.95199219 65.48050781 10.90398437 64.96101563 9.82421875 64.42578125 C8.44494656 63.72207095 7.06606031 63.01760385 5.6875 62.3125 C4.99720703 61.97283203 4.30691406 61.63316406 3.59570312 61.28320312 C-1.71537333 58.53786409 -3.91556002 56.05249772 -5.94921875 50.328125 C-9.71841257 34.61317935 -9.51109789 16.76859142 -6 1 C-3 0 -3 0 0 0 Z " fill="#5D90BC" transform="translate(113,102)"/>
<path d="M0 0 C23.43 0 46.86 0 71 0 C71 5.94 71 11.88 71 18 C47.57 18 24.14 18 0 18 C0 12.06 0 6.12 0 0 Z " fill="#F3F3F4" transform="translate(193,344)"/>
<path d="M0 0 C0.33 0 0.66 0 1 0 C1 21.45 1 42.9 1 65 C34.33 64.67 67.66 64.34 102 64 C102 42.88 102 21.76 102 0 C102.33 0 102.66 0 103 0 C103 20.79 103 41.58 103 63 C108.08817139 62.99419922 113.17634277 62.98839844 118.41870117 62.98242188 C168.8932656 62.93815699 219.36379443 63.11764253 269.83722198 63.44538212 C279.50023538 63.50801479 289.16326787 63.56745154 298.82630217 63.62675762 C318.55088946 63.74788026 338.27545244 63.87257794 358 64 C358 64.66 358 65.32 358 66 C223.69 66 89.38 66 -49 66 C-49 65.34 -49 64.68 -49 64 C-32.83 64 -16.66 64 0 64 C0 42.88 0 21.76 0 0 Z " fill="#5E757C" transform="translate(177,324)"/>
<path d="M0 0 C1.5631897 0.00785522 1.5631897 0.00785522 3.15795898 0.01586914 C4.28266602 0.0190918 5.40737305 0.02231445 6.56616211 0.02563477 C7.75016602 0.03401367 8.93416992 0.04239258 10.15405273 0.05102539 C11.34192383 0.05553711 12.52979492 0.06004883 13.75366211 0.06469727 C16.69967499 0.07652864 19.64558954 0.09301252 22.59155273 0.11352539 C21.80780273 0.69102539 21.02405273 1.26852539 20.21655273 1.86352539 C16.8444625 4.75388845 15.75369821 6.44438075 15.32592773 10.84790039 C15.33108398 11.84305664 15.33624023 12.83821289 15.34155273 13.86352539 C15.33639648 14.84836914 15.33124023 15.83321289 15.32592773 16.84790039 C15.57053446 20.95360574 15.57053446 20.95360574 17.59155273 28.11352539 C10.99155273 28.11352539 4.39155273 28.11352539 -2.40844727 28.11352539 C-3.26668607 24.68057015 -3.53706752 22.20667393 -3.54125977 18.72680664 C-3.54254883 17.70651367 -3.54383789 16.6862207 -3.54516602 15.63500977 C-3.53936523 14.0465625 -3.53936523 14.0465625 -3.53344727 12.42602539 C-3.53731445 11.35545898 -3.54118164 10.28489258 -3.54516602 9.18188477 C-3.54387695 8.16545898 -3.54258789 7.1490332 -3.54125977 6.10180664 C-3.54013184 5.16892822 -3.53900391 4.2360498 -3.5378418 3.27490234 C-3.35373347 0.19959856 -3.08887235 0.14559814 0 0 Z " fill="#FED383" transform="translate(453.408447265625,332.886474609375)"/>
<path d="M0 0 C0 0.33 0 0.66 0 1 C-3.6022194 1.80912991 -7.01935081 2.17242581 -10.70703125 2.29711914 C-11.83431641 2.33708511 -12.96160156 2.37705109 -14.12304688 2.41822815 C-15.34056641 2.45681442 -16.55808594 2.4954007 -17.8125 2.53515625 C-19.7296582 2.59962196 -19.7296582 2.59962196 -21.68554688 2.66539001 C-24.40567957 2.75632623 -27.12589039 2.8441831 -29.84619141 2.92993164 C-32.57257909 3.01608693 -35.29878533 3.10610871 -38.02490234 3.20043945 C-57.03003306 3.85566839 -75.98524428 4.13131365 -95 4 C-95 3.67 -95 3.34 -95 3 C-90.17444923 2.08375618 -85.39763389 1.71515674 -80.5 1.5 C-79.17536743 1.44017944 -79.17536743 1.44017944 -77.82397461 1.37915039 C-51.89172233 0.27925412 -25.95400557 -0.19148812 0 0 Z " fill="#CFCFCF" transform="translate(452,196)"/>
<path d="M0 0 C3.00469351 2.59496258 3.36858796 3.9214699 5 8 C10.94 8 16.88 8 23 8 C23 12.95 23 17.9 23 23 C22.67 23 22.34 23 22 23 C22 18.38 22 13.76 22 9 C21.67 9.66 21.34 10.32 21 11 C11.76 11 2.52 11 -7 11 C-7 14.96 -7 18.92 -7 23 C-7.33 23 -7.66 23 -8 23 C-8 18.05 -8 13.1 -8 8 C-4.37 8 -0.74 8 3 8 C2.505 7.05125 2.01 6.1025 1.5 5.125 C0 2 0 2 0 0 Z " fill="#151B21" transform="translate(221,301)"/>
<path d="M0 0 C1.5631897 0.00785522 1.5631897 0.00785522 3.15795898 0.01586914 C4.28266602 0.0190918 5.40737305 0.02231445 6.56616211 0.02563477 C7.75016602 0.03401367 8.93416992 0.04239258 10.15405273 0.05102539 C11.34192383 0.05553711 12.52979492 0.06004883 13.75366211 0.06469727 C16.69967499 0.07652864 19.64558954 0.09301252 22.59155273 0.11352539 C20.46578569 1.98104162 19.15409831 3.05241303 16.30151367 3.36230469 C15.07609863 3.27589722 15.07609863 3.27589722 13.82592773 3.18774414 C12.93647461 3.13295898 12.04702148 3.07817383 11.13061523 3.02172852 C10.21022461 2.94889648 9.28983398 2.87606445 8.34155273 2.80102539 C7.40569336 2.73979492 6.46983398 2.67856445 5.50561523 2.61547852 C3.19954394 2.46252481 0.8955474 2.29473489 -1.40844727 2.11352539 C-1.39797363 2.67338135 -1.3875 3.2332373 -1.37670898 3.81005859 C-1.33511401 6.34866846 -1.30911042 8.88720659 -1.28344727 11.42602539 C-1.25831055 12.74763672 -1.25831055 12.74763672 -1.23266602 14.09594727 C-1.2262207 14.94350586 -1.21977539 15.79106445 -1.21313477 16.66430664 C-1.19742432 17.83473511 -1.19742432 17.83473511 -1.18139648 19.02880859 C-1.40844727 21.11352539 -1.40844727 21.11352539 -3.40844727 24.11352539 C-3.43731963 20.30104113 -3.45520218 16.48858469 -3.47094727 12.67602539 C-3.47932617 11.58741211 -3.48770508 10.49879883 -3.49633789 9.37719727 C-3.49956055 8.34272461 -3.5027832 7.30825195 -3.50610352 6.24243164 C-3.51134033 5.28409424 -3.51657715 4.32575684 -3.52197266 3.33837891 C-3.36268075 0.21660016 -3.13065192 0.14756748 0 0 Z " fill="#FED68A" transform="translate(453.408447265625,332.886474609375)"/>
<path d="M0 0 C8.25 0 16.5 0 25 0 C20.5 3.375 20.5 3.375 16.015625 2.85546875 C15.08105469 2.75556641 14.14648438 2.65566406 13.18359375 2.55273438 C12.21550781 2.43220703 11.24742187 2.31167969 10.25 2.1875 C9.26644531 2.07857422 8.28289062 1.96964844 7.26953125 1.85742188 C4.84422497 1.58663525 2.42179355 1.30034553 0 1 C0 0.67 0 0.34 0 0 Z " fill="#EBD69B" transform="translate(451,333)"/>
<path d="M0 0 C0.66 0 1.32 0 2 0 C2.8638129 1.45264038 3.71580454 2.9123163 4.5625 4.375 C5.27599609 5.59316406 5.27599609 5.59316406 6.00390625 6.8359375 C6.33261719 7.55007812 6.66132812 8.26421875 7 9 C6.67 9.66 6.34 10.32 6 11 C3 6.25 3 6.25 3 4 C-0.0745356 4.7763932 -0.0745356 4.7763932 -2 7 C-2.125 4.625 -2.125 4.625 -2 2 C-1.34 1.34 -0.68 0.68 0 0 Z " fill="#537EA4" transform="translate(110,98)"/>
<path d="M0 0 C0.66 1.32 1.32 2.64 2 4 C-0.33333333 6.33333333 -2.66666667 8.66666667 -5 11 C-4.125 6.25 -4.125 6.25 -3 4 C-2.34 4 -1.68 4 -1 4 C-0.67 2.68 -0.34 1.36 0 0 Z " fill="#71A3C7" transform="translate(217,259)"/>
</svg>
