<?xml version="1.0" encoding="UTF-8"?>
<svg version="1.1" xmlns="http://www.w3.org/2000/svg" width="295" height="223">
<path d="M0 0 C97.35 0 194.7 0 295 0 C295 73.59 295 147.18 295 223 C197.65 223 100.3 223 0 223 C0 149.41 0 75.82 0 0 Z " fill="#C44C30" transform="translate(0,0)"/>
<path d="M0 0 C97.35 0 194.7 0 295 0 C295 73.59 295 147.18 295 223 C197.65 223 100.3 223 0 223 C0 149.41 0 75.82 0 0 Z M26 56 C25.55073659 58.46565966 25.55073659 58.46565966 25.6257782 61.28260803 C25.61876389 62.37768173 25.61174957 63.47275543 25.60452271 64.60101318 C25.61216644 65.80268127 25.61981018 67.00434937 25.62768555 68.24243164 C25.62403488 69.50762131 25.62038422 70.77281097 25.61662292 72.07633972 C25.60721068 75.54736131 25.61664142 79.0181011 25.62995505 82.48910069 C25.64126157 86.11833956 25.63716273 89.74756439 25.63520813 93.3768158 C25.63432501 99.47073987 25.64541014 105.56455273 25.66381836 111.65844727 C25.68499579 118.70956205 25.68849398 125.760514 25.6822564 132.81165415 C25.67656749 139.58892476 25.68220219 146.36613787 25.69342995 153.14340019 C25.69808125 156.03053281 25.69894751 158.91763034 25.6968441 161.8047657 C25.69461572 165.83225204 25.7090497 169.85950895 25.7253418 173.88696289 C25.72286438 175.09065521 25.72038696 176.29434753 25.71783447 177.53451538 C25.72491928 178.62676926 25.73200409 179.71902313 25.73930359 180.84437561 C25.74135646 181.79730027 25.74340933 182.75022493 25.74552441 183.7320261 C25.78360306 186.19950429 25.78360306 186.19950429 28 188 C30.58354218 188.16687448 30.58354218 188.16687448 33 188 C32.9175 188.9075 32.835 189.815 32.75 190.75 C32.73524468 193.97733499 32.73524468 193.97733499 34.4244833 196.17179966 C38.3026207 198.92465004 41.80943753 198.55035696 46.45826721 198.50120544 C47.42737012 198.50673984 48.39647303 198.51227424 49.3949427 198.51797634 C52.65100506 198.53161893 55.90630569 198.51659375 59.16235352 198.50170898 C61.49302497 198.50549081 63.82369418 198.51098972 66.15435791 198.51808167 C72.4909924 198.53207043 78.82735642 198.52084266 85.16397595 198.50437045 C91.11555474 198.49194667 97.06710564 198.49612808 103.01869296 198.49950016 C114.81060264 198.50537988 126.60240556 198.49120225 138.39428711 198.46655273 C149.84159343 198.44262615 161.28875715 198.43555042 172.73608398 198.44604492 C185.19728008 198.45744841 197.6584102 198.45939169 210.11960548 198.44494683 C216.7176341 198.43739392 223.31560557 198.43352273 229.91363716 198.43945122 C236.11473956 198.44421134 242.31564371 198.43415932 248.51670837 198.41249657 C250.79721343 198.4069156 253.07773748 198.40647532 255.35824394 198.41144943 C258.46195735 198.41737183 261.56505835 198.40495564 264.66871643 198.38768005 C265.57940417 198.3936901 266.49009192 198.39970014 267.42837626 198.40589231 C268.25744736 198.39745237 269.08651846 198.38901243 269.94071293 198.38031673 C271.01567637 198.37877304 271.01567637 198.37877304 272.11235625 198.37719816 C274.5751358 197.88507357 275.47144731 196.95727963 277 195 C277.44926341 192.53434034 277.44926341 192.53434034 277.3742218 189.71739197 C277.38123611 188.62231827 277.38825043 187.52724457 277.39547729 186.39898682 C277.38783356 185.19731873 277.38018982 183.99565063 277.37231445 182.75756836 C277.37596512 181.49237869 277.37961578 180.22718903 277.38337708 178.92366028 C277.39278932 175.45263869 277.38335858 171.9818989 277.37004495 168.51089931 C277.35873843 164.88166044 277.36283727 161.25243561 277.36479187 157.6231842 C277.36567499 151.52926013 277.35458986 145.43544727 277.33618164 139.34155273 C277.31500421 132.29043795 277.31150602 125.239486 277.3177436 118.18834585 C277.32343251 111.41107524 277.31779781 104.63386213 277.30657005 97.85659981 C277.30191875 94.96946719 277.30105249 92.08236966 277.3031559 89.1952343 C277.30538428 85.16774796 277.2909503 81.14049105 277.2746582 77.11303711 C277.27713562 75.90934479 277.27961304 74.70565247 277.28216553 73.46548462 C277.27508072 72.37323074 277.26799591 71.28097687 277.26069641 70.15562439 C277.25864354 69.20269973 277.25659067 68.24977507 277.25447559 67.2679739 C277.21639694 64.80049571 277.21639694 64.80049571 275 63 C271.91652174 62.83318891 271.91652174 62.83318891 269 63 C269.061875 61.906875 269.12375 60.81375 269.1875 59.6875 C269.34712275 56.14246976 269.34712275 56.14246976 267.74216127 54.29312646 C265.62275519 52.71998847 264.55716911 52.62425537 261.93791962 52.62247658 C261.10823182 52.61465334 260.27854402 52.60683009 259.42371416 52.59876978 C258.05665937 52.60880803 258.05665937 52.60880803 256.6619873 52.61904907 C255.69373882 52.6143691 254.72549033 52.60968913 253.72790098 52.60486734 C250.46885379 52.59285833 247.21022252 52.60239771 243.95117188 52.61181641 C241.62064874 52.60775333 239.29012753 52.60241295 236.95960999 52.59588623 C230.61883155 52.58217543 224.27819907 52.58752684 217.93741798 52.59702349 C211.98328908 52.6038333 206.02917846 52.59864419 200.0750491 52.5942419 C187.56363142 52.58568257 175.05227963 52.59553063 162.54087275 52.611643 C151.80016472 52.62504669 141.05955394 52.62271875 130.31884766 52.60888672 C117.85290376 52.59284047 105.38701764 52.58650659 92.92106485 52.59572351 C86.31966217 52.60040894 79.71832652 52.60100102 73.1169281 52.59111404 C66.91174564 52.58247023 60.70674748 52.58841898 54.50158501 52.60579681 C52.21946456 52.6097755 49.93732869 52.60860416 47.65521431 52.60200882 C44.54926853 52.59385783 41.44392002 52.60403685 38.3380127 52.61904907 C37.42664283 52.61235691 36.51527297 52.60566474 35.57628584 52.59876978 C34.74659804 52.60659303 33.91691024 52.61441627 33.06208038 52.62247658 C32.34489602 52.62296363 31.62771165 52.62345069 30.88879442 52.62395251 C28.4245248 53.11457361 27.52899341 54.04167654 26 56 Z " fill="#F3EFE3" transform="translate(0,0)"/>
<path d="M0 0 C97.35 0 194.7 0 295 0 C295 73.59 295 147.18 295 223 C197.65 223 100.3 223 0 223 C0 149.41 0 75.82 0 0 Z M5 24 C4.938125 55.453125 4.87625 86.90625 4.8125 119.3125 C4.78518799 129.25673096 4.75787598 139.20096191 4.72973633 149.4465332 C4.7197052 158.33333432 4.7197052 158.33333432 4.71366882 167.22013855 C4.71086533 171.18922419 4.69958922 175.15819036 4.68327332 179.12724304 C4.6627619 184.18355118 4.65651423 189.23968452 4.66078317 194.2960304 C4.65988995 196.15573903 4.65390217 198.01545349 4.64235461 199.87512648 C4.62751998 202.37968767 4.63099713 204.88356218 4.63923645 207.38813782 C4.63049846 208.12236056 4.62176046 208.85658331 4.61275768 209.61305523 C4.60440894 213.38771569 4.60440894 213.38771569 6.22819585 216.68590862 C8.52723946 218.39103692 9.86913015 218.37588089 12.71800995 218.37752342 C13.69400036 218.38534666 14.66999078 218.39316991 15.67555666 218.40123022 C16.75034635 218.39453805 17.82513604 218.38784589 18.93249512 218.38095093 C20.0722528 218.3856309 21.21201049 218.39031087 22.38630629 218.39513266 C26.225753 218.40714942 30.06484718 218.39759914 33.90429688 218.38818359 C36.64861289 218.39059522 39.39291368 218.39747751 42.13722229 218.40411377 C48.82949944 218.41747378 55.52167581 218.41456331 62.21395695 218.40587585 C67.65151176 218.3991086 73.08903826 218.39817841 78.52659607 218.4014473 C79.29964922 218.401907 80.07270236 218.40236669 80.86918136 218.40284032 C82.43948258 218.40379947 84.00978378 218.40477211 85.58008498 218.4057581 C100.31477398 218.41431863 115.04940705 218.40446747 129.78408688 218.388357 C142.43502475 218.37495321 155.08588003 218.37728111 167.73681641 218.39111328 C182.41774179 218.4071574 197.09861811 218.4134946 211.77955103 218.40427649 C213.34416866 218.40332081 214.90878629 218.4023777 216.47340393 218.4014473 C217.2432836 218.40098447 218.01316326 218.40052164 218.80637261 218.40004479 C224.23920807 218.39745139 229.67201249 218.40183342 235.10484314 218.40888596 C241.72307085 218.4172882 248.34119178 218.41504782 254.95940721 218.39904372 C258.33804571 218.3911436 261.71635795 218.38970564 265.09501839 218.39799118 C268.75269412 218.40613659 272.40986189 218.39596962 276.06750488 218.38095093 C277.67968942 218.39098918 277.67968942 218.39098918 279.32444334 218.40123022 C280.30043375 218.39340697 281.27642417 218.38558373 282.28199005 218.37752342 C283.12676045 218.37703637 283.97153085 218.37654931 284.84190035 218.37604749 C287.5234515 217.90878891 288.40908719 217.18379961 290 215 C290.28820404 212.38292115 290.39190741 210.00504667 290.36076355 207.38813782 C290.36461563 206.21718819 290.36461563 206.21718819 290.36854553 205.02258301 C290.37352368 202.39025535 290.35692118 199.7584963 290.34057617 197.1262207 C290.33965749 195.21350466 290.34005709 193.3007876 290.34167194 191.38807201 C290.34235049 186.25614392 290.32493666 181.12442478 290.30384064 175.99254608 C290.28678229 171.18069281 290.28595273 166.3688909 290.28381348 161.55700684 C290.26805836 147.47547677 290.22617506 133.39398577 290.1875 119.3125 C290.0946875 72.1328125 290.0946875 72.1328125 290 24 C195.95 24 101.9 24 5 24 Z " fill="#245546" transform="translate(0,0)"/>
<path d="M0 0 C2.875 -0.125 2.875 -0.125 6 0 C8.57798885 2.57798885 8.25297434 3.57110381 8.26069641 7.15562439 C8.26778122 8.24787827 8.27486603 9.34013214 8.28216553 10.46548462 C8.27968811 11.66917694 8.27721069 12.87286926 8.2746582 14.11303711 C8.27976913 15.37647446 8.28488007 16.6399118 8.29014587 17.94163513 C8.30356394 21.41271109 8.30411143 24.88367835 8.30158257 28.35477519 C8.3005147 31.25000914 8.30539153 34.14522094 8.310188 37.04045016 C8.321293 43.8696756 8.3217151 50.69884606 8.31567383 57.52807617 C8.30963277 64.57861418 8.32194599 71.62895269 8.3432439 78.67945665 C8.36084457 84.72791441 8.36686367 90.77630858 8.36360615 96.82479101 C8.3617906 100.43940594 8.36445628 104.05387858 8.37832069 107.66847038 C8.39319866 111.69830199 8.38394244 115.72772613 8.37231445 119.75756836 C8.37995819 120.95923645 8.38760193 122.16090454 8.39547729 123.39898682 C8.38846298 124.49406052 8.38144867 125.58913422 8.3742218 126.71739197 C8.37438954 127.67069366 8.37455729 128.62399534 8.37473011 129.60618496 C7.92133027 132.50255047 7.26478613 133.20176372 5 135 C3.11120558 135.37604749 3.11120558 135.37604749 0.93791962 135.37752342 C0.10823182 135.38534666 -0.72145598 135.39316991 -1.57628584 135.40123022 C-2.4876557 135.39453805 -3.39902556 135.38784589 -4.3380127 135.38095093 C-5.30626118 135.3856309 -6.27450967 135.39031087 -7.27209902 135.39513266 C-10.53114621 135.40714167 -13.78977748 135.39760229 -17.04882812 135.38818359 C-19.37935126 135.39224667 -21.70987247 135.39758705 -24.04039001 135.40411377 C-30.38116845 135.41782457 -36.72180093 135.41247316 -43.06258202 135.40297651 C-49.01671092 135.3961667 -54.97082154 135.40135581 -60.9249509 135.4057581 C-73.43636858 135.41431743 -85.94772037 135.40446937 -98.45912725 135.388357 C-109.19983528 135.37495331 -119.94044606 135.37728125 -130.68115234 135.39111328 C-143.14709624 135.40715953 -155.61298236 135.41349341 -168.07893515 135.40427649 C-174.68033783 135.39959106 -181.28167348 135.39899898 -187.8830719 135.40888596 C-194.08825436 135.41752977 -200.29325252 135.41158102 -206.49841499 135.39420319 C-208.78053544 135.3902245 -211.06267131 135.39139584 -213.34478569 135.39799118 C-216.45073147 135.40614217 -219.55607998 135.39596315 -222.6619873 135.38095093 C-224.0290421 135.39098918 -224.0290421 135.39098918 -225.42371416 135.40123022 C-226.25340196 135.39340697 -227.08308976 135.38558373 -227.93791962 135.37752342 C-229.01369617 135.37679284 -229.01369617 135.37679284 -230.11120558 135.37604749 C-232.61069076 134.87841518 -233.49906806 134.0367484 -235 132 C-235.1875 128.3125 -235.1875 128.3125 -235 125 C-233.80010217 124.99576806 -232.60020433 124.99153612 -231.36394596 124.98717594 C-202.91014111 124.88660014 -174.45635841 124.78091013 -146.00259635 124.66888306 C-142.50392832 124.65511272 -139.00526011 124.64138574 -135.5065918 124.62768555 C-134.81004087 124.62495724 -134.11348993 124.62222894 -133.3958314 124.61941796 C-122.10272774 124.57528776 -110.80961402 124.53467318 -99.51649273 124.49534739 C-87.9372351 124.45494733 -76.35799745 124.41071895 -64.77876705 124.36312145 C-58.2713107 124.33649439 -51.76385816 124.31164076 -45.25638008 124.29092598 C-39.13911209 124.27139878 -33.02188003 124.24726698 -26.90464401 124.21950912 C-24.65232811 124.21011786 -22.4000043 124.20245012 -20.14767647 124.19658089 C-17.08702296 124.18835482 -14.02645753 124.17408831 -10.96583557 124.15821838 C-9.6103184 124.15675122 -9.6103184 124.15675122 -8.22741705 124.15525442 C-4.29875391 124.51901447 -4.29875391 124.51901447 -1 123 C-0.89187487 121.40618922 -0.85315703 119.80762353 -0.84178162 118.21018982 C-0.8319928 117.17387421 -0.82220398 116.13755859 -0.81211853 115.06983948 C-0.80636307 113.92329391 -0.8006076 112.77674835 -0.79467773 111.59545898 C-0.78477814 110.39562378 -0.77487854 109.19578857 -0.76467896 107.95959473 C-0.73842867 104.66017762 -0.71659258 101.36078552 -0.69667697 98.0613277 C-0.67485486 94.6166283 -0.64744777 91.17197358 -0.62062073 87.72731018 C-0.57064262 81.20020511 -0.52572286 74.67307532 -0.48259836 68.14592177 C-0.43326962 60.71674811 -0.37833537 53.28761927 -0.32291877 45.85848892 C-0.2090202 30.57236732 -0.1021984 15.28620457 0 0 Z " fill="#265344" transform="translate(269,63)"/>
<path d="M0 0 C6.26442439 4.66382257 10.09025176 12.04106838 11.5703125 19.62109375 C12.0027498 27.92148754 9.33911382 35.89949373 3.96875 42.25 C-2.47051257 48.3327636 -8.10572641 50.88986935 -16.9140625 51.2578125 C-25.68348247 50.99307529 -31.88275854 47.66062654 -38.25 41.75 C-42.00406709 37.55427796 -44.42794884 32.44360247 -44.9765625 26.8203125 C-45.03972656 26.17578125 -45.10289063 25.53125 -45.16796875 24.8671875 C-45.59264054 17.03130793 -43.10223004 10.18850954 -38.2890625 4.0078125 C-27.66957744 -7.39330979 -12.78489971 -7.63051327 0 0 Z " fill="#C44C31" transform="translate(108.9765625,115.1796875)"/>
<path d="M0 0 C0.66 0.33 1.32 0.66 2 1 C2 71.95 2 142.9 2 216 C-139.57 215.505 -139.57 215.505 -284 215 C-284 213.68 -284 212.36 -284 211 C-283.41251988 210.99864347 -282.82503975 210.99728694 -282.2197572 210.99588931 C-247.43162286 210.91530882 -212.64353063 210.82438298 -177.85545952 210.71994839 C-173.68212298 210.70742892 -169.50878618 210.69499624 -165.33544922 210.68261719 C-164.08914979 210.6789182 -164.08914979 210.6789182 -162.8176726 210.67514448 C-149.34926012 210.63537767 -135.88083922 210.60264772 -122.41240217 210.57250018 C-108.60135553 210.5414298 -94.79034481 210.50283947 -80.97933853 210.45720994 C-72.4513282 210.42927343 -63.92334426 210.40726289 -55.39530037 210.39273749 C-49.55410407 210.38222762 -43.71295875 210.36443973 -37.8718008 210.34083296 C-34.49742582 210.3274135 -31.12318639 210.3183703 -27.74877548 210.31578636 C-24.09723748 210.31248786 -20.44595135 210.2970763 -16.79446411 210.2784729 C-15.71860617 210.28040763 -14.64274822 210.28234237 -13.53428853 210.28433573 C-12.56192246 210.27687024 -11.58955639 210.26940475 -10.58772469 210.26171303 C-9.74398611 210.25943471 -8.90024754 210.25715638 -8.03094113 210.25480902 C-5.77348761 210.18254116 -5.77348761 210.18254116 -4 208 C-3.7947518 205.47989706 -3.71487454 203.06833122 -3.7215271 200.5463562 C-3.7128385 199.3799805 -3.7128385 199.3799805 -3.70397437 198.19004166 C-3.6868964 195.57050074 -3.68409121 192.95113516 -3.68115234 190.33154297 C-3.67185953 188.45934615 -3.66169184 186.5871535 -3.65071106 184.71496582 C-3.62332397 179.62021428 -3.60823594 174.52549051 -3.59528303 169.43068457 C-3.57969046 164.11083112 -3.55288799 158.79103474 -3.5272522 153.47122192 C-3.48039559 143.39192563 -3.44368486 133.31261868 -3.41057932 123.23326886 C-3.37240646 111.76061233 -3.3229837 100.28801302 -3.27259517 88.81540465 C-3.169173 65.21031213 -3.07994615 41.60518288 -3 18 C-2.34 18 -1.68 18 -1 18 C-0.67 12.06 -0.34 6.12 0 0 Z " fill="#2F5E4F" transform="translate(293,7)"/>
<path d="M0 0 C5.50354954 2.19904247 7.49631068 6.88742432 10 12 C14.55574179 23.93976938 13.77303603 34.22257053 9 46 C3.35402042 56.75502162 -4.71674533 63.91094472 -16.25390625 67.75 C-27.53116432 70.65505396 -39.07580352 69.38899098 -49.3203125 63.71484375 C-51.37889927 62.26576012 -53.1760266 60.73471513 -55 59 C-56.03253906 58.02740234 -56.03253906 58.02740234 -57.0859375 57.03515625 C-64.78157857 49.1249527 -69.15925116 39.01775151 -69.125 27.9375 C-69.12757812 27.10089844 -69.13015625 26.26429688 -69.1328125 25.40234375 C-69.00734161 23.13279672 -68.63336779 21.17657343 -68 19 C-66.3954444 19.14148989 -64.79136233 19.28835686 -63.1875 19.4375 C-62.29417969 19.51871094 -61.40085937 19.59992188 -60.48046875 19.68359375 C-58 20 -58 20 -55 21 C-55.03480469 21.68964844 -55.06960937 22.37929687 -55.10546875 23.08984375 C-55.36838683 32.21685715 -53.92966906 39.78824033 -48 47 C-40.83986586 53.39352449 -34.6293433 55.50256125 -25.03125 55.3125 C-20.42252796 54.83737402 -16.92693953 53.40610168 -13 51 C-12.04287109 50.41605469 -12.04287109 50.41605469 -11.06640625 49.8203125 C-4.61568467 45.1314009 -1.89289429 37.85003942 -0.484375 30.19921875 C-0.04539245 23.30519737 -2.31843057 18.45831659 -5.6875 12.53125 C-7 10 -7 10 -7 7 C-5.46875 5.17578125 -5.46875 5.17578125 -3.5 3.3125 C-2.8503125 2.68988281 -2.200625 2.06726563 -1.53125 1.42578125 C-0.77328125 0.72001953 -0.77328125 0.72001953 0 0 Z " fill="#225445" transform="translate(120,110)"/>
<path d="M0 0 C0.66 0 1.32 0 2 0 C2.00146656 0.96944644 2.00293312 1.93889288 2.00444412 2.93771648 C2.04102158 26.51475078 2.10044811 50.09164283 2.18390274 73.66855907 C2.22373036 85.07013883 2.25610394 96.47164918 2.27099609 107.87329102 C2.28399331 117.80971644 2.31090855 127.74598942 2.35461307 137.682329 C2.3772713 142.94470451 2.39290807 148.20689168 2.39188385 153.4693203 C2.39113982 158.42125142 2.40898722 163.37276552 2.44116783 168.32458878 C2.44969501 170.14304643 2.45139772 171.96155072 2.44580269 173.78001976 C2.4391835 176.26168847 2.45703213 178.74202226 2.48101807 181.22355652 C2.47325765 181.94438154 2.46549723 182.66520656 2.45750165 183.40787476 C2.51280827 186.6367076 3.00194805 189.0042666 4.34512329 191.94607544 C8.57694583 195.21999178 12.78994288 194.69136497 17.99700928 194.63923645 C19.69885183 194.65176996 19.69885183 194.65176996 21.43507504 194.66455668 C25.25097097 194.6865688 29.06591212 194.67285341 32.88183594 194.65942383 C35.61148009 194.66509874 38.34107565 194.67829452 41.07069397 194.69119263 C46.95458231 194.71504935 52.83826116 194.72063724 58.72219086 194.71384621 C67.22933483 194.70405392 75.73624621 194.72176797 84.24335256 194.74621352 C98.04521542 194.78512599 111.84701184 194.80176741 125.64892578 194.80444336 C139.05683806 194.80709053 152.46467269 194.82020156 165.87255859 194.84741211 C166.69890547 194.84908549 167.52525236 194.85075887 168.37664005 194.85248295 C172.52214562 194.86094237 176.66765073 194.86960779 180.81315565 194.87837565 C215.20876081 194.95085671 249.60432204 194.98721098 284 195 C284 195.33 284 195.66 284 196 C192.59 196 101.18 196 7 196 C7 196.66 7 197.32 7 198 C98.41 198 189.82 198 284 198 C284 198.33 284 198.66 284 199 C248.41480158 199.11440098 212.82963536 199.20252626 177.24429097 199.25532665 C173.04477766 199.26158031 168.84526472 199.26805191 164.64575195 199.2746582 C163.80969137 199.27596976 162.97363079 199.27728131 162.11223503 199.2786326 C148.56818367 199.30039948 135.02423823 199.33982803 121.48024974 199.38576398 C107.58672974 199.43249301 93.69326528 199.46028786 79.79966992 199.47044247 C71.22393574 199.47730904 62.64850094 199.49900961 54.07285889 199.53958233 C48.19519432 199.56597689 42.31768491 199.5740085 36.43996534 199.56750689 C33.04681898 199.56429878 29.65419637 199.56927574 26.26114273 199.59602737 C22.5840582 199.62080188 18.90826813 199.61496043 15.2311554 199.60127258 C13.61880342 199.62311889 13.61880342 199.62311889 11.97387868 199.64540654 C7.37155087 199.59890598 4.76348962 199.4917614 0.83325958 196.96031189 C-1.46773424 193.24471186 -1.66902219 190.27415379 -1.56330872 186.03373718 C-1.56349729 185.2372559 -1.56368586 184.44077462 -1.56388015 183.62015754 C-1.55840884 180.95399514 -1.51705108 178.28961071 -1.47583008 175.6237793 C-1.46455649 173.71174755 -1.45549667 171.79970166 -1.44848633 169.88764954 C-1.4231768 164.69767301 -1.36686436 159.50843915 -1.3050406 154.31878638 C-1.24568139 148.8950046 -1.21475582 143.47106313 -1.18083191 138.04707336 C-1.11226486 127.77637657 -1.01807591 117.50608046 -0.91471261 107.23568135 C-0.79828103 95.54306217 -0.71036487 83.85028323 -0.62486041 72.15740335 C-0.44833411 48.10462289 -0.23594396 24.05226579 0 0 Z " fill="#104738" transform="translate(2,24)"/>
<path d="M0 0 C2.7183248 1.90131438 3.92533615 3.10675422 5.8125 5.9375 C3.1725 8.5775 0.5325 11.2175 -2.1875 13.9375 C-5.376931 12.6617276 -8.29147514 11.43290106 -11.3125 9.875 C-18.10682529 6.3720891 -24.38579594 5.89280383 -31.75 8.0625 C-41.62972236 11.81472905 -45.6227454 17.57975306 -50.1875 26.9375 C-54.1475 26.2775 -58.1075 25.6175 -62.1875 24.9375 C-61.79601938 15.93344579 -56.89729948 9.25578018 -50.5625 3.125 C-35.86723079 -9.45504106 -16.19582936 -10.42460285 0 0 Z " fill="#F2EFE3" transform="translate(115.1875,104.0625)"/>
<path d="M0 0 C3.3 0 6.6 0 10 0 C10 21.78 10 43.56 10 66 C6.7 66 3.4 66 0 66 C0 44.22 0 22.44 0 0 Z " fill="#1F5546" transform="translate(167,113)"/>
<path d="M0 0 C3.3 0 6.6 0 10 0 C10 19.8 10 39.6 10 60 C6.7 60 3.4 60 0 60 C0 40.2 0 20.4 0 0 Z " fill="#1F5445" transform="translate(200,119)"/>
<path d="M0 0 C3.63 0 7.26 0 11 0 C11 16.5 11 33 11 50 C7.37 50 3.74 50 0 50 C0 33.5 0 17 0 0 Z " fill="#285444" transform="translate(233,129)"/>
<path d="M0 0 C3.3 0 6.6 0 10 0 C10 16.5 10 33 10 50 C6.7 50 3.4 50 0 50 C0 33.5 0 17 0 0 Z " fill="#215445" transform="translate(150,129)"/>
<path d="M0 0 C3.63 0 7.26 0 11 0 C11 13.53 11 27.06 11 41 C7.37 41 3.74 41 0 41 C0 27.47 0 13.94 0 0 Z " fill="#285444" transform="translate(183,138)"/>
<path d="M0 0 C0.33 0 0.66 0 1 0 C0.99631283 1.08375034 0.99262566 2.16750069 0.98882675 3.28409195 C0.90010259 29.63126272 0.83433222 55.97841416 0.79275131 82.32570267 C0.7721096 95.06696119 0.74395818 107.80812114 0.69824219 120.54931641 C0.65842378 131.65210908 0.63257891 142.75483039 0.62364602 153.85769248 C0.61842283 159.73879819 0.60611287 165.61969968 0.57707977 171.50074005 C0.54998972 177.0328579 0.54154207 182.56468682 0.54756927 188.0968647 C0.54646617 190.13024781 0.53847435 192.16364029 0.5231781 194.19696617 C0.50335056 196.96787097 0.50803432 199.73767708 0.51898193 202.50860596 C0.50733057 203.31794468 0.4956792 204.12728341 0.48367476 204.96114755 C0.52316973 208.64553913 0.64874652 210.5729355 3.03006363 213.46821213 C4.00518213 214.22644712 4.00518213 214.22644712 5 215 C5 215.33 5 215.66 5 216 C3.02 216 1.04 216 -1 216 C-1.02332539 187.9847538 -1.0409774 159.96950905 -1.05181217 131.9542551 C-1.0569759 118.94728331 -1.06402004 105.94031754 -1.07543945 92.93334961 C-1.08538396 81.60095765 -1.09185287 70.26857005 -1.09408849 58.93617386 C-1.095396 52.93172824 -1.09848435 46.9272951 -1.10573006 40.92285347 C-1.1124866 35.27837031 -1.11461771 29.63390484 -1.11310768 23.98941803 C-1.11338418 21.91125073 -1.11539145 19.83308287 -1.11920547 17.75491905 C-1.12413702 14.93075251 -1.12300029 12.10665388 -1.12025452 9.28248596 C-1.12316736 8.44884492 -1.1260802 7.61520388 -1.12908131 6.75630099 C-1.11412121 1.11412121 -1.11412121 1.11412121 0 0 Z " fill="#1F5243" transform="translate(1,7)"/>
<path d="M0 0 C3.3 0 6.6 0 10 0 C10 11.22 10 22.44 10 34 C6.7 34 3.4 34 0 34 C0 22.78 0 11.56 0 0 Z " fill="#1F5445" transform="translate(217,145)"/>
<path d="M0 0 C3.3 0 6.6 0 10 0 C10 6.93 10 13.86 10 21 C6.7 21 3.4 21 0 21 C0 14.07 0 7.14 0 0 Z " fill="#F5F4E9" transform="translate(167,92)"/>
<path d="M0 0 C3.3 0 6.6 0 10 0 C10 6.6 10 13.2 10 20 C6.7 20 3.4 20 0 20 C0 13.4 0 6.8 0 0 Z " fill="#F2F1E5" transform="translate(200,99)"/>
<path d="M0 0 C3.63 0 7.26 0 11 0 C11 5.61 11 11.22 11 17 C7.37 17 3.74 17 0 17 C0 11.39 0 5.78 0 0 Z " fill="#ECE6DA" transform="translate(233,112)"/>
<path d="M0 0 C18.15 0 36.3 0 55 0 C55 0.99 55 1.98 55 3 C37.18 3 19.36 3 1 3 C0.67 2.01 0.34 1.02 0 0 Z " fill="#F6F8F0" transform="translate(51,63)"/>
<path d="M0 0 C3.3 0 6.6 0 10 0 C10 5.28 10 10.56 10 16 C6.7 16 3.4 16 0 16 C0 10.72 0 5.44 0 0 Z " fill="#F5F3E8" transform="translate(150,112)"/>
<path d="M0 0 C3.63 0 7.26 0 11 0 C11 4.62 11 9.24 11 14 C7.37 14 3.74 14 0 14 C0 9.38 0 4.76 0 0 Z " fill="#EFE6D9" transform="translate(183,124)"/>
<path d="M0 0 C11.55 0 23.1 0 35 0 C35 1.32 35 2.64 35 4 C23.45 4 11.9 4 0 4 C0 2.68 0 1.36 0 0 Z " fill="#F1E8DB" transform="translate(52,70)"/>
<path d="M0 0 C3.3 0 6.6 0 10 0 C10 3.63 10 7.26 10 11 C6.7 11 3.4 11 0 11 C0 7.37 0 3.74 0 0 Z " fill="#F4F1E6" transform="translate(217,133)"/>
<path d="M0 0 C0 2.64 0 5.28 0 8 C-0.598125 7.195625 -1.19625 6.39125 -1.8125 5.5625 C-3.80947276 2.77672016 -3.80947276 2.77672016 -7 2 C-8.91718848 1.91134824 -10.83735913 1.88238243 -12.7565918 1.88647461 C-13.93758957 1.88655014 -15.11858734 1.88662567 -16.33537292 1.88670349 C-18.24797661 1.89444542 -18.24797661 1.89444542 -20.19921875 1.90234375 C-22.15720146 1.90446617 -22.15720146 1.90446617 -24.15473938 1.90663147 C-27.62189656 1.9104462 -31.08901174 1.92026756 -34.55615234 1.93133545 C-38.09537182 1.94157202 -41.6345981 1.9461339 -45.17382812 1.95117188 C-52.11590265 1.96189077 -59.05794931 1.97895466 -66 2 C-66 1.67 -66 1.34 -66 1 C-58.7235762 0.86866785 -51.44713719 0.73821393 -44.17067814 0.60884857 C-40.79110514 0.54873754 -37.41153788 0.488336 -34.03198242 0.42724609 C-30.1372201 0.3569927 -26.24244052 0.28777431 -22.34765625 0.21875 C-21.1473024 0.19687622 -19.94694855 0.17500244 -18.71022034 0.15246582 C-12.47224286 0.04296239 -6.23893325 -0.02326875 0 0 Z " fill="#094132" transform="translate(295,0)"/>
<path d="M0 0 C15.84 0.33 31.68 0.66 48 1 C48 1.33 48 1.66 48 2 C46.74864258 1.98428955 45.49728516 1.9685791 44.20800781 1.95239258 C39.5638676 1.89807895 34.91975545 1.86364461 30.27539062 1.83520508 C28.26557697 1.82012174 26.25579621 1.79965228 24.24609375 1.77368164 C21.35668824 1.73727856 18.46771804 1.72026912 15.578125 1.70703125 C14.68007141 1.69154739 13.78201782 1.67606354 12.85675049 1.66011047 C7.99410152 1.63001473 7.99410152 1.63001473 3.52636719 3.33081055 C1.80358645 5.12980397 1.80358645 5.12980397 0 8 C0 5.36 0 2.72 0 0 Z " fill="#094132" transform="translate(0,0)"/>
<path d="M0 0 C0.33 0 0.66 0 1 0 C0.97905273 1.00901367 0.95810547 2.01802734 0.93652344 3.05761719 C0.86403215 6.80714687 0.8181678 10.55661482 0.78027344 14.30664062 C0.76017856 15.92849143 0.73289746 17.55026997 0.69824219 19.171875 C0.6496273 21.5053898 0.62701111 23.83794557 0.609375 26.171875 C0.58872986 26.89493835 0.56808472 27.61800171 0.54681396 28.36297607 C0.54522992 31.93036031 0.70142727 33.6420872 3.02441406 36.42675781 C3.67635742 36.94592773 4.32830078 37.46509766 5 38 C5 38.33 5 38.66 5 39 C3.02 39 1.04 39 -1 39 C-0.67 26.13 -0.34 13.26 0 0 Z " fill="#184D3E" transform="translate(1,184)"/>
<path d="M0 0 C0.66 0 1.32 0 2 0 C2 4.62 2 9.24 2 14 C3.98 14 5.96 14 8 14 C8 10.04 8 6.08 8 2 C8.33 2 8.66 2 9 2 C9 6.29 9 10.58 9 15 C4.545 15.495 4.545 15.495 0 16 C0 10.72 0 5.44 0 0 Z " fill="#F0ECDF" transform="translate(150,112)"/>
<path d="M0 0 C2.5 0.125 2.5 0.125 3.5 1.125 C3.625 3.625 3.625 3.625 3.5 6.125 C2.5 7.125 2.5 7.125 0 7.25 C-2.5 7.125 -2.5 7.125 -3.5 6.125 C-3.625 3.625 -3.625 3.625 -3.5 1.125 C-2.5 0.125 -2.5 0.125 0 0 Z " fill="#F0EFE5" transform="translate(28.5,9.875)"/>
<path d="M0 0 C2.5 0.125 2.5 0.125 3.5 1.125 C3.625 3.625 3.625 3.625 3.5 6.125 C2.5 7.125 2.5 7.125 0 7.25 C-2.5 7.125 -2.5 7.125 -3.5 6.125 C-3.625 3.625 -3.625 3.625 -3.5 1.125 C-2.5 0.125 -2.5 0.125 0 0 Z " fill="#F0F0E6" transform="translate(16.5,9.875)"/>
<path d="M0 0 C2.625 0.375 2.625 0.375 5 1 C5.625 2.875 5.625 2.875 6 5 C5.34 5.66 4.68 6.32 4 7 C1.375 6.625 1.375 6.625 -1 6 C-1.625 4.125 -1.625 4.125 -2 2 C-1.34 1.34 -0.68 0.68 0 0 Z " fill="#F2F1E7" transform="translate(39,10)"/>
<path d="M0 0 C3.63 0 7.26 0 11 0 C11 0.99 11 1.98 11 3 C7.37 3 3.74 3 0 3 C0 2.01 0 1.02 0 0 Z " fill="#F5F1EA" transform="translate(51,78)"/>
<path d="M0 0 C2.97 0 5.94 0 9 0 C9 2.64 9 5.28 9 8 C8.1646875 6.824375 8.1646875 6.824375 7.3125 5.625 C4.92331435 2.91295142 3.39926587 2.03866457 0 1 C0 0.67 0 0.34 0 0 Z " fill="#000000" transform="translate(286,0)"/>
<path d="M0 0 C2.64 0 5.28 0 8 0 C7.236875 0.5775 6.47375 1.155 5.6875 1.75 C3.33799083 3.71703093 1.70676495 5.48476744 0 8 C0 5.36 0 2.72 0 0 Z " fill="#000000" transform="translate(0,0)"/>
<path d="M0 0 C0.33 0 0.66 0 1 0 C1 2.31 1 4.62 1 7 C-1.31 7 -3.62 7 -6 7 C-5.02433888 5.83040013 -4.044375 4.66438823 -3.0625 3.5 C-2.51722656 2.8503125 -1.97195313 2.200625 -1.41015625 1.53125 C-0.71212891 0.77328125 -0.71212891 0.77328125 0 0 Z " fill="#000000" transform="translate(294,216)"/>
<path d="M0 0 C4.875 4.75 4.875 4.75 6 7 C4.02 7 2.04 7 0 7 C0 4.69 0 2.38 0 0 Z " fill="#000201" transform="translate(0,216)"/>
</svg>
